# xmcd CD database file
#
# Track frame offsets:
#	150
#	16787
#	37287
#	61460
#	78560
#	95937
#	116687
#	133650
#	154207
#	173430
#
# Disc length: 2562 seconds
#
# Revision: 1
# Processed by: cddbd v1.5PL3 Copyright (c) Steve Scherf et al.
# Submitted via: CDex 1.51
#
DISCID=850a000a
DTITLE=桜井　智 - ACTRESS ?・朝倉薫演劇団劇中歌 Best Selection
DYEAR=1997
DGENRE=Pop
TTITLE0=君忘れじのマンハッタン・ジルバ
TTITLE1=桃のプリンセス
TTITLE2=水絵具
TTITLE3=海へ行くバス
TTITLE4=恋
TTITLE5=俺たちの海
TTITLE6=永遠へのディスタンス
TTITLE7=夜汽車は何処へ
TTITLE8=秋のオムレツ
TTITLE9=憧れに向かって
EXTD=YEAR: 1997
EXTT0=
EXTT1=
EXTT2=
EXTT3=
EXTT4=
EXTT5=
EXTT6=
EXTT7=
EXTT8=
EXTT9=
PLAYORDER=
